# xmcd CD database file
# Copyright (C) 1993-1999 CDDB, Inc.
#
# Track frame offsets:
#	150
#	13884
#	26016
#	37954
#	51524
#	64777
#	78962
#	93839
#	105605
#	117878
#	130578
#	144434
#
# Disc length: 2111
#
# Revision: 1
# Processed by: cddbd v1.5.1PL0 Copyright (c) Steve Scherf et al.
# Submitted via: CoolCD_Studio 1.4
#
DISCID=97083d0c
DTITLE=Various Artist - Queens Of Country - Sweet Dreams
DYEAR=2004
DGENRE=
TTITLE0=Loretta Lynn - Coal Miner's Daughter
TTITLE1=Brenda Lee - Break It To Me Gently
TTITLE2=Patsy Cline - Sweet Dreams (Of You)
TTITLE3=Tammy Wynette - D-I-V-O-R-C-E
TTITLE4=Kitty Wells - Makin' Believe
TTITLE5=Barbara Mandrell - (If Lovin' You Is Wrong) I Don't Want To 
TTITLE5=Be Right
TTITLE6=Jeanne Pruett - Satin Sheets
TTITLE7=Sammi Smith - Help Me Make It Through The Night
TTITLE8=Marie Osmond - Paper Roses
TTITLE9=Donna Fargo - Funny Face
TTITLE10=Patsy Cline - She's Got You
TTITLE11=Patsy Montana - I Want To Be A Cowboy's Sweetheart
EXTD=
EXTT0=
EXTT1=
EXTT2=
EXTT3=
EXTT4=
EXTT5=
EXTT6=
EXTT7=
EXTT8=
EXTT9=
EXTT10=
EXTT11=
PLAYORDER=
